<?xml version="1.0" standalone="no"?><!DOCTYPE svg PUBLIC "-//W3C//DTD SVG 1.1//EN" "http://www.w3.org/Graphics/SVG/1.1/DTD/svg11.dtd"><svg t="1700446966031" class="icon" viewBox="0 0 1065 1024" version="1.1" xmlns="http://www.w3.org/2000/svg" p-id="9416" xmlns:xlink="http://www.w3.org/1999/xlink" width="133.125" height="128"><path d="M570.754098 973.639344c-253.901639 0-461.639344-207.737705-461.639344-461.639344s207.737705-461.639344 461.639344-461.639344 461.639344 207.737705 461.639345 461.639344-207.737705 461.639344-461.639345 461.639344z m0-881.311475c-230.819672 0-419.672131 188.852459-419.672131 419.672131s188.852459 419.672131 419.672131 419.672131 419.672131-188.852459 419.672132-419.672131-188.852459-419.672131-419.672132-419.672131z" fill="#1afa29" p-id="9417"></path><path d="M667.278689 356.721311v-83.934426h27.278688v83.934426h98.622951c8.393443 0 14.688525 6.295082 14.688524 14.688525V566.557377c0 100.721311-81.836066 180.459016-180.459016 180.459016h-41.967213v83.934427h-27.278689v-83.934427h-41.967213c-100.721311 0-180.459016-81.836066-180.459016-180.459016v-195.147541c0-8.393443 6.295082-14.688525 14.688525-14.688525h98.62295v-83.934426h27.278689v83.934426h190.95082z m-306.360656 27.278689V566.557377c0 83.934426 69.245902 153.180328 153.180328 153.180328h111.213114c83.934426 0 153.180328-69.245902 153.180328-153.180328v-180.459016H360.918033zM503.606557 566.557377l67.147541-119.606557 25.180328 14.688524-44.065574 77.639345h83.934427l-67.147541 119.606557-25.180328-14.688525L587.540984 566.557377h-83.934427z" fill="#1afa29" p-id="9418"></path><path d="M589.639344 837.245902h-37.770492v-83.934427h-35.672131c-102.819672 0-186.754098-83.934426-186.754098-186.754098v-195.147541c0-10.491803 8.393443-18.885246 18.885246-18.885246H440.655738v-83.934426h37.770492v83.934426h184.655737v-83.934426h37.770492v83.934426h92.327869c10.491803 0 18.885246 8.393443 18.885246 18.885246V566.557377c0 102.819672-83.934426 186.754098-186.754099 186.754098h-35.672131v83.934427z m-27.278688-10.491804h16.786885v-83.934426h46.163934c96.52459 0 176.262295-79.737705 176.262295-176.262295v-195.147541c0-4.196721-4.196721-8.393443-8.393442-8.393443h-102.819672v-83.934426h-16.786886v83.934426h-205.639344v-83.934426h-16.786885v83.934426h-102.819672c-4.196721 0-8.393443 4.196721-8.393443 8.393443V566.557377c0 96.52459 79.737705 176.262295 176.262295 176.262295h46.163935v83.934426z m62.950819-100.721311h-111.213114c-88.131148 0-159.47541-71.344262-159.47541-159.47541v-186.754098h430.163934V566.557377c0 88.131148-71.344262 159.47541-159.47541 159.47541z m-258.09836-335.737705V566.557377c0 81.836066 67.147541 148.983607 148.983606 148.983607h111.213115c81.836066 0 148.983607-67.147541 148.983607-148.983607v-176.262295H367.213115z m203.540983 274.885246l-33.57377-18.885246 41.967213-73.442623h-83.934426l75.540983-130.098361 33.573771 18.885246-41.967213 73.442623h83.934426l-75.540984 130.098361z m-18.885246-23.081967l14.688525 8.393442 60.852459-107.016393h-83.934426l46.163934-79.737705-14.688524-8.393443-60.852459 107.016394h83.934426l-46.163935 79.737705z" fill="#1afa29" p-id="9419"></path></svg>